<svg width="64" height="64" viewBox="0 0 24 24" fill="white" xmlns="http://www.w3.org/2000/svg">
  <path d="M7 4H3V6H5L8.68 14.39L7.25 17C6.89 17.67 7.39 18.5 8.13 18.5H19V16.5H9.42C9.28 16.5 9.17 16.39 9.2 16.25L9.5 15.5H17.25C17.91 15.5 18.5 15.09 18.78 14.5L22 7.5H7.81L7 4ZM9 18C8.17 18 7.5 18.67 7.5 19.5C7.5 20.33 8.17 21 9 21C9.83 21 10.5 20.33 10.5 19.5C10.5 18.67 9.83 18 9 18ZM17 18C16.17 18 15.5 18.67 15.5 19.5C15.5 20.33 16.17 21 17 21C17.83 21 18.5 20.33 18.5 19.5C18.5 18.67 17.83 18 17 18Z"/>
</svg>
